<svg width="194" height="254" viewBox="0 0 194 254" fill="none" xmlns="http://www.w3.org/2000/svg">
<path d="M83.7 11.3C74.55 13.7 65.1 14.75 55.8 15.95C46.05 17 36.3 18.35 26.7 19.7C23.25 20.15 19.95 20.6 16.65 21.05C13.35 21.65 10.05 22.25 6.9 22.25C4.95 22.25 4.95 25.25 6.9 25.25C9.3 25.25 11.55 24.8 13.95 24.35C16.35 24.05 18.75 23.75 21.15 23.3C24 23 26.7 22.55 29.4 22.25C24 40.1 17.7 57.8 11.25 75.35C7.95 84.5 4.8 93.65 1.65 102.8C-1.5 111.95 -4.35 121.1 -7.35 130.25C-7.8 131.9 -8.4 133.4 -9 134.9C-9.3 135.65 -9.3 136.55 -8.55 136.85C-7.8 137.3 -6.75 137.15 -6.45 136.4C-4.5 132.05 -3.3 127.4 -1.95 122.9C-0.45 118.25 1.05 113.75 2.55 109.1C5.55 99.95 8.85 90.8 12.15 81.65C18.75 63.35 25.35 45.2 31.05 26.6C31.65 25.1 32.1 23.45 32.55 21.8C33.6 21.65 34.8 21.5 35.85 21.35C40.65 20.75 45.6 20 50.4 19.4C55.2 18.95 59.85 18.35 64.5 17.75C71.25 16.85 78 15.8 84.45 14C86.25 13.55 85.5 10.7 83.7 11.3ZM41.3297 83.75C39.9797 85.25 38.3297 86.75 36.6797 87.95C35.0297 89.15 33.3797 90.5 31.5797 91.4C31.4297 91.4 31.4297 91.4 31.2797 91.4C31.2797 90.95 31.5797 90.05 31.7297 89.45C32.1797 87.5 32.7797 85.4 32.7797 83.3C32.7797 82.4 31.8797 81.65 30.9797 81.95C28.1297 83 25.7297 84.65 23.6297 86.75C28.7297 71.9 33.8297 57.05 38.9297 42.2C39.5297 40.4 36.6797 39.65 36.0797 41.45C30.6797 57.2 25.2797 73.1 19.7297 88.85C19.7297 89.45 19.5797 89.75 19.2797 90.2C19.1297 90.65 18.9797 91.1 18.8297 91.55C18.8297 91.85 18.6797 92.15 18.5297 92.6C18.3797 92.9 18.3797 93.2 18.2297 93.5C18.0797 93.8 17.9297 94.25 17.7797 94.55C17.6297 94.85 17.4797 95.15 17.4797 95.6C17.4797 95.75 17.4797 96.05 17.6297 96.2C18.2297 96.95 19.5797 97.25 20.1797 96.35C22.5797 92.15 25.4297 87.95 29.6297 85.7C29.6297 86 29.4797 86.3 29.4797 86.6C29.1797 87.8 28.8797 89 28.5797 90.2C27.8297 92.15 28.8797 94.4 31.1297 94.4C32.3297 94.25 33.3797 93.65 34.2797 93.2C35.3297 92.45 36.3797 91.7 37.4297 90.95C39.5297 89.45 41.6297 87.8 43.4297 85.85C44.6297 84.5 42.5297 82.4 41.3297 83.75ZM53.7551 83.75C52.1051 85.25 50.4551 86.6 48.6551 87.65C47.7551 88.4 46.7051 88.85 45.6551 89.45C45.3551 89.6 44.9051 89.9 44.4551 90.05C44.3051 90.05 44.1551 90.2 43.8551 90.2H43.7051C43.7051 90.2 43.5551 89.75 43.4051 89.6C43.4051 89.15 43.4051 88.7 43.5551 88.25C43.7051 87.05 44.0051 85.85 44.3051 84.5C44.9051 82.4 46.1051 80.3 46.4051 78.05C46.4051 77.3 46.1051 76.55 45.3551 76.25C44.6051 76.1 43.7051 76.55 43.5551 77.3C43.4051 78.65 42.8051 79.85 42.3551 81.05C41.9051 82.25 41.4551 83.6 41.1551 84.95C40.5551 87.35 39.6551 91.25 42.3551 92.75C43.5551 93.35 44.7551 93.05 45.8051 92.6C47.0051 92.15 48.2051 91.4 49.2551 90.8C51.6551 89.45 53.7551 87.65 55.8551 85.85C57.2051 84.5 55.1051 82.4 53.7551 83.75ZM49.8551 61.1C49.7051 60.65 49.2551 60.2 48.6551 60.05C48.2051 59.9 47.7551 59.9 47.3051 60.2C47.0051 60.35 46.7051 60.65 46.4051 60.8C46.1051 61.1 45.9551 61.4 45.6551 61.55C45.3551 62 45.2051 62.6 45.2051 63.2C45.2051 63.8 45.5051 64.4 45.9551 64.7C46.2551 65.15 46.7051 65.3 47.1551 65.45C47.3051 65.45 47.6051 65.45 47.7551 65.45C48.2051 65.45 48.3551 65.45 48.8051 65.15C49.2551 65 49.5551 64.7 49.7051 64.25C50.3051 63.35 50.1551 62.15 49.8551 61.1ZM69.8063 84.05C69.3563 83.3 68.4563 83 67.7063 83.45C66.9563 84.05 66.2063 84.8 65.3063 85.4C64.4063 86 63.3563 86.6 62.4563 87.2C61.1063 87.95 59.7563 88.55 58.2563 89C57.5063 89.15 56.9063 89.3 56.1563 89.3C56.1563 89.3 55.7063 89.15 55.7063 89H55.5563C55.5563 89 55.5563 89 55.5563 88.85C55.5563 89 55.5563 88.85 55.4063 88.7C55.2563 88.4 55.4063 87.8 55.5563 87.2C55.7063 86.6 55.8563 86 56.1563 85.4C59.0063 84.8 62.6063 84.05 64.2563 81.35C65.3063 79.55 64.4063 77.3 62.3063 76.7C60.5063 76.1 58.5563 77.15 57.2063 78.5C56.0063 79.55 55.1063 81.05 54.3563 82.4C53.6062 83.9 53.0062 85.25 52.5562 86.75C52.2562 88.55 52.4062 90.2 53.9062 91.4C55.2563 92.45 57.2063 92.3 58.8562 91.85C60.5063 91.55 62.0063 90.8 63.3563 90.05C64.4063 89.45 65.4563 88.85 66.3563 88.25C67.4063 87.5 68.3063 86.75 69.2063 86C69.8063 85.55 70.1063 84.65 69.8063 84.05ZM61.7063 79.55C61.7063 79.55 61.7063 79.55 61.8563 79.7L61.5563 80.15C61.1063 80.6 60.5063 81.05 59.9063 81.35C59.3063 81.65 58.5563 81.8 57.9563 81.95C58.1063 81.8 58.2563 81.65 58.4063 81.35C59.0063 80.6 60.6563 78.95 61.7063 79.55ZM86.7258 84.05C86.4258 83.45 85.3758 83 84.7758 83.45C83.4258 84.5 82.2258 85.85 80.8758 87.05C80.2758 87.65 79.6758 88.25 78.9258 88.7C79.2258 87.5 79.6758 86.3 79.9758 85.1C80.2758 84.05 80.5758 82.85 81.0258 81.65C81.4758 80.3 81.7758 78.8 81.6258 77.3C81.3258 75.8 79.9758 75.05 78.6258 75.35C77.2758 75.5 76.2258 76.4 75.3258 77.15C74.2758 78.05 73.3758 79.1 72.4758 80.15C72.0258 80.6 71.5758 81.2 71.1258 81.65C71.4258 81.05 71.5758 80.6 71.8758 80C72.1758 79.25 71.4258 78.35 70.8258 78.2C69.9258 77.9 69.3258 78.5 69.0258 79.25C67.6758 82.55 66.9258 86.15 66.0258 89.6C65.7258 91.4 67.8258 92 68.7258 90.8C70.6758 88.25 72.0258 85.1 74.1258 82.7C74.8758 81.8 75.6258 80.9 76.5258 80C76.9758 79.7 77.2758 79.25 77.7258 78.95L78.0258 78.8C78.1758 78.65 78.3258 78.5 78.3258 78.5C78.4758 78.35 78.6258 78.35 78.7758 78.35C78.7758 79.25 78.1758 80.75 77.8758 81.8C77.4258 83 77.1258 84.2 76.8258 85.4C76.2258 87.2 75.7758 89.15 75.7758 91.1C75.7758 92 76.6758 92.75 77.5758 92.45C81.3258 91.55 83.4258 88.25 86.2758 86C86.8758 85.55 87.1758 84.8 86.7258 84.05Z" transform="translate(20 -22) scale(2)" fill="black"/>
</svg>
