<svg width="1286" height="1238" viewBox="0 0 1286 1238" fill="none" xmlns="http://www.w3.org/2000/svg">
<path d="M15.7291 40.2049C0.12112 182.022 -3.871 260.399 3.75268 275.337C15.1862 297.743 20.7708 287.354 86.9583 312.574C127.217 327.914 141.775 352.704 130.631 386.946L144.32 385.995L150.235 381.413L165.167 384.411L194.748 223.046L223.744 107.376L181.852 0L74.4965 20.9498L15.7291 40.2049Z" transform="translate(620.477 40.3865) scale(2)" fill="white"/>
<path d="M0 246C4.31282 196.339 25.6691 124.394 49.0689 91.39C107.376 9.14877 193.845 -13.7475 260.494 7.43503C353.892 37.119 402.894 116.641 407.5 246H0Z" transform="translate(471 746) scale(2)" fill="#04116E"/>
<path d="M217 285.5C341.534 179.531 318.144 37.9813 229.835 9.7491C153.373 -14.695 76.7613 6.8278 0 74.3176L201.324 53.4621L188.5 184L200 185.5L208 154C220.5 150.5 231.5 149.5 231.5 170.5C231.5 177 232.5 187 214 205.5L217 285.5Z" transform="translate(560) scale(2)" fill="#FF5E50"/>
<path d="M36.4281 72.8716C56.5467 72.8716 72.8561 56.5587 72.8561 36.4358C72.8561 16.3129 56.5467 0 36.4281 0C16.3094 0 0 16.3129 0 36.4358C0 56.5587 16.3094 72.8716 36.4281 72.8716Z" transform="translate(576 246) scale(2)" stroke="black" stroke-width="3" stroke-miterlimit="3" stroke-linecap="square"/>
<path d="M36.4281 72.8716C56.5467 72.8716 72.8561 56.5587 72.8561 36.4358C72.8561 16.3129 56.5467 0 36.4281 0C16.3094 0 0 16.3129 0 36.4358C0 56.5587 16.3094 72.8716 36.4281 72.8716Z" transform="translate(750.606 250.098) scale(2)" stroke="black" stroke-width="3" stroke-miterlimit="3" stroke-linecap="square"/>
<path d="M0 3.10038C1.70584 1.25348 3.55508 0.239185 5.54773 0.0575006C7.97537 -0.165849 10.1654 0.145612 13.4739 3.10038" transform="translate(722.773 314.785) scale(2)" stroke="black" stroke-width="3" stroke-miterlimit="3" stroke-linecap="square"/>
<path d="M6.61914 13.2411C10.2748 13.2411 13.2383 10.277 13.2383 6.62054C13.2383 2.96412 10.2748 0 6.61914 0C2.96349 0 0 2.96412 0 6.62054C0 10.277 2.96349 13.2411 6.61914 13.2411Z" transform="translate(646 323.689) scale(2)" fill="black"/>
<path d="M6.61914 13.2411C10.2748 13.2411 13.2383 10.277 13.2383 6.62054C13.2383 2.96412 10.2748 0 6.61914 0C2.96349 0 0 2.96412 0 6.62054C0 10.277 2.96349 13.2411 6.61914 13.2411Z" transform="translate(810 335.689) scale(2)" fill="black"/>
<path d="M18.5402 0L0 78.3137L26.1202 82.9241" transform="translate(689.761 324.973) scale(2)" stroke="black" stroke-width="3" stroke-miterlimit="3" stroke-linecap="square"/>
<path d="M0 0C23.655 11.2399 45.2402 11.2399 64.7556 0" transform="translate(658 527.689) scale(2)" stroke="black" stroke-width="3" stroke-miterlimit="3" stroke-linecap="square"/>
<path d="M3.65468 17.9868C1.76615 8.69225 8.86987 0 18.3543 0H353.741C360.874 0 367.021 5.02311 368.441 12.0132L413.345 233.013C415.234 242.308 408.13 251 398.646 251H63.2587C56.1257 251 49.9794 245.977 48.5591 238.987L3.65468 17.9868Z" transform="translate(0 736) scale(2)" fill="#FAFAFA"/>
<circle cx="21" cy="21" r="21" transform="translate(374 945) scale(2)" fill="#FF5E50"/>
<path d="M0 0H161V7C161 12.5228 156.523 17 151 17H0V0Z" transform="translate(652 1204) scale(2)" fill="#FAFAFA"/>
</svg>
