<svg width="286" height="24" viewBox="0 0 286 24" fill="none" xmlns="http://www.w3.org/2000/svg">
<path d="M139 5L135.036 8.96447C133.083 10.9171 129.917 10.9171 127.964 8.96447L122.536 3.53553C120.583 1.58291 117.417 1.58291 115.464 3.53553L110.036 8.96447C108.083 10.9171 104.917 10.9171 102.964 8.96447L97.5355 3.53553C95.5829 1.58291 92.4171 1.58291 90.4645 3.53553L85.0355 8.96447C83.0829 10.9171 79.9171 10.9171 77.9645 8.96447L72.5355 3.53553C70.5829 1.58291 67.4171 1.58291 65.4645 3.53553L60.0355 8.96447C58.0829 10.9171 54.9171 10.9171 52.9645 8.96447L47.5355 3.53553C45.5829 1.58291 42.4171 1.58291 40.4645 3.53553L35.0355 8.96447C33.0829 10.9171 29.9171 10.9171 27.9645 8.96447L22.6859 3.68592C20.6755 1.67555 17.3957 1.74385 15.4707 3.83617L11.0293 8.66383C9.10434 10.7562 5.82445 10.8245 3.81408 8.81408L0 5" transform="translate(4) scale(2)" stroke="#0923E8" stroke-width="3"/>
</svg>
